<?xml version="1.0" encoding="UTF-8"?>
<svg id="Layer_1" xmlns="http://www.w3.org/2000/svg" version="1.1" viewBox="0 0 792.6829 792.6829">
  <!-- Generator: Adobe Illustrator 29.3.1, SVG Export Plug-In . SVG Version: 2.1.0 Build 151)  -->
  <defs>
    <style>
      .st0 {
        fill: #1e87d6;
      }
    </style>
  </defs>
  <path class="st0" d="M0,0v792.6829h792.6829V0H0ZM728.6742,515.1075c0,117.2501-95.3893,212.6396-212.6395,212.6396-103.153,0-189.3725-73.8356-208.6173-171.4287,130.3887-14.4313,233.4441-119.4676,244.8157-250.7552,100.0667,17.2345,176.4412,104.6321,176.4412,209.5442ZM304.6345,492.1784c10.4782-97.2798,86.8242-175.1114,183.4139-187.867-10.4783,97.2798-86.8242,175.1116-183.4139,187.867ZM240.45,490.9266c-100.0669-17.2345-176.4414-104.632-176.4414-209.5441,0-117.2502,95.3896-212.6396,212.6396-212.6396,103.153,0,189.3725,73.8353,208.6173,171.4284-130.3902,14.4311-233.4443,119.4669-244.8155,250.7553ZM64.0086,458.3448c43.8591,52.644,106.8923,88.7446,178.3808,97.5748,10.2448,69.2802,46.1609,130.1964,97.7847,172.7546H64.0086v-270.3295ZM550.2934,240.5702c-10.5546-71.3749-48.3589-133.8694-102.512-176.5616h280.8928v274.1369c-43.8594-52.6443-106.8927-88.7452-178.3808-97.5754Z"/>
</svg>