<?xml version="1.0" encoding="UTF-8"?>
<svg id="Layer_1" xmlns="http://www.w3.org/2000/svg" version="1.1" viewBox="0 0 1965.9823 920.0478">
  <!-- Generator: Adobe Illustrator 29.3.1, SVG Export Plug-In . SVG Version: 2.1.0 Build 151)  -->
  <defs>
    <style>
      .st0 {
        fill: #1e87d6;
      }

      .st1 {
        fill: #5fe496;
      }
    </style>
  </defs>
  <g>
    <path class="st0" d="M8.1127,715.9316h17.2012v23.2207h.5732c2.6743-4.5869,6.02-8.5508,10.0337-11.8975,4.0137-3.3418,8.3584-6.1143,13.0439-8.3135,4.6812-2.1953,9.604-3.8213,14.7642-4.874,5.1602-1.0479,10.2222-1.5762,15.1943-1.5762,10.1279,0,19.4448,1.7197,27.9512,5.1602,8.502,3.4404,15.8613,8.2686,22.0747,14.4775,6.208,6.2129,11.0371,13.5723,14.4771,22.0742,3.4404,8.5068,5.1602,17.8232,5.1602,27.9512s-1.7197,19.4502-5.1602,27.9521c-3.4399,8.5059-8.269,15.8652-14.4771,22.0742-6.2134,6.2129-13.5728,11.0371-22.0747,14.4775-8.5063,3.4395-17.8232,5.1602-27.9512,5.1602-4.9722,0-10.0342-.5293-15.1943-1.5771-5.1602-1.0527-10.083-2.6738-14.7642-4.873-4.6855-2.1953-9.0303-4.9678-13.0439-8.3145-4.0137-3.3418-7.3594-7.3096-10.0337-11.8965h-.5732v88.584H8.1127v-197.8096ZM23.5937,782.1543c0,7.4541,1.4331,14.4775,4.3003,21.0713,2.8667,6.5938,6.7817,12.3271,11.7539,17.2012,4.9673,4.873,10.7954,8.7432,17.4873,11.6104,6.688,2.8672,13.9487,4.2998,21.7881,4.2998,8.0269,0,15.2881-1.4326,21.7876-4.2998,6.4951-2.8672,12.0405-6.7373,16.6274-11.6104,4.5869-4.874,8.0718-10.6074,10.4639-17.2012,2.3877-6.5938,3.5835-13.6172,3.5835-21.0713s-1.1958-14.4775-3.5835-21.0703c-2.3921-6.5938-5.877-12.3281-10.4639-17.2012-4.5869-4.874-10.1323-8.7441-16.6274-11.6104-6.4995-2.8672-13.7607-4.3008-21.7876-4.3008-7.8394,0-15.1001,1.4336-21.7881,4.3008-6.6919,2.8662-12.52,6.7363-17.4873,11.6104-4.9722,4.873-8.8872,10.6074-11.7539,17.2012-2.8672,6.5928-4.3003,13.6172-4.3003,21.0703Z"/>
    <path class="st0" d="M186.9999,753.2002c0-2.4824-.0986-5.4922-.2866-9.0312-.1929-3.5342-.3359-7.1172-.4302-10.75-.0986-3.6289-.2417-7.0234-.4302-10.1777-.1924-3.1533-.2866-5.5898-.2866-7.3096h17.2012c.188,4.9717.3311,9.7471.4297,14.334.0942,4.5869.3315,7.5518.7168,8.8867,4.3945-7.834,10.0337-14.2354,16.9141-19.208,6.8804-4.9668,15.2881-7.4531,25.228-7.4531,1.7202,0,3.3911.1436,5.0171.4297,1.6216.2871,3.2969.623,5.0166,1.0039l-2.0063,16.9141c-2.2935-.7617-4.4932-1.1465-6.5938-1.1465-7.4536,0-13.9043,1.1953-19.3511,3.583-5.4468,2.3916-9.9399,5.6885-13.4741,9.8906-3.5386,4.2061-6.1636,9.1289-7.8838,14.7637-1.7197,5.6396-2.5801,11.71-2.5801,18.2051v72.2432h-17.2007v-95.1777Z"/>
    <path class="st0" d="M269.8515,782.1543c0-10.1279,1.7197-19.4443,5.1602-27.9512,3.4399-8.502,8.2153-15.8613,14.334-22.0742,6.1143-6.209,13.4741-11.0371,22.0742-14.4775,8.6006-3.4404,17.9624-5.1602,28.0947-5.1602s19.4453,1.7197,27.9517,5.1602c8.502,3.4404,15.8613,8.2686,22.0742,14.4775,6.2085,6.2129,11.0376,13.5723,14.4775,22.0742,3.4404,8.5068,5.1602,17.8232,5.1602,27.9512s-1.7197,19.4502-5.1602,27.9521c-3.4399,8.5059-8.269,15.8652-14.4775,22.0742-6.2129,6.2129-13.5723,11.0371-22.0742,14.4775-8.5063,3.4395-17.8237,5.1602-27.9517,5.1602s-19.4941-1.7207-28.0947-5.1602c-8.6001-3.4404-15.96-8.2646-22.0742-14.4775-6.1187-6.209-10.894-13.5684-14.334-22.0742-3.4404-8.502-5.1602-17.8193-5.1602-27.9521ZM287.0522,782.1543c0,7.4541,1.1914,14.4775,3.5835,21.0713,2.3877,6.5938,5.877,12.3271,10.4639,17.2012,4.5869,4.873,10.1279,8.7432,16.6274,11.6104,6.4951,2.8672,13.7607,4.2998,21.7876,4.2998s15.2886-1.4326,21.7881-4.2998c6.4951-2.8672,12.0405-6.7373,16.6274-11.6104,4.5869-4.874,8.0718-10.6074,10.4639-17.2012,2.3877-6.5938,3.5835-13.6172,3.5835-21.0713s-1.1958-14.4775-3.5835-21.0703c-2.3921-6.5938-5.877-12.3281-10.4639-17.2012-4.5869-4.874-10.1323-8.7441-16.6274-11.6104-6.4995-2.8672-13.7607-4.3008-21.7881-4.3008s-15.2925,1.4336-21.7876,4.3008c-6.4995,2.8662-12.0405,6.7363-16.6274,11.6104-4.5869,4.873-8.0762,10.6074-10.4639,17.2012-2.3921,6.5928-3.5835,13.6172-3.5835,21.0703Z"/>
    <path class="st0" d="M512.3818,731.4121h-37.8423v86.291c0,5.9258,1.6216,10.5127,4.8735,13.7607,3.2476,3.252,7.7407,4.873,13.4741,4.873,3.2476,0,6.5444-.4297,9.8906-1.29,3.3418-.8594,6.5444-1.957,9.604-3.2969l1.4331,15.4814c-3.252,1.1465-6.979,2.1943-11.1807,3.1533-4.2061.9541-7.9326,1.4336-11.1802,1.4336-6.1191,0-11.3735-.9092-15.7676-2.7236-4.3989-1.8145-7.9331-4.251-10.6074-7.3105-2.6787-3.0547-4.6362-6.6387-5.877-10.75-1.2451-4.1084-1.8633-8.5518-1.8633-13.3311v-86.291h-28.668v-15.4805h28.668v-38.1289h17.2007v38.1289h37.8423v15.4805Z"/>
    <path class="st1" d="M535.601,782.1543c0-10.1279,1.7197-19.4443,5.1602-27.9512,3.4399-8.502,8.2153-15.8613,14.334-22.0742,6.1143-6.209,13.4741-11.0371,22.0742-14.4775,8.6006-3.4404,17.9624-5.1602,28.0947-5.1602s19.4453,1.7197,27.9517,5.1602c8.502,3.4404,15.8613,8.2686,22.0742,14.4775,6.2085,6.2129,11.0376,13.5723,14.4775,22.0742,3.4404,8.5068,5.1602,17.8232,5.1602,27.9512s-1.7197,19.4502-5.1602,27.9521c-3.4399,8.5059-8.269,15.8652-14.4775,22.0742-6.2129,6.2129-13.5723,11.0371-22.0742,14.4775-8.5063,3.4395-17.8237,5.1602-27.9517,5.1602s-19.4941-1.7207-28.0947-5.1602c-8.6001-3.4404-15.96-8.2646-22.0742-14.4775-6.1187-6.209-10.894-13.5684-14.334-22.0742-3.4404-8.502-5.1602-17.8193-5.1602-27.9521ZM552.8017,782.1543c0,7.4541,1.1914,14.4775,3.5835,21.0713,2.3877,6.5938,5.877,12.3271,10.4639,17.2012,4.5869,4.873,10.1279,8.7432,16.6274,11.6104,6.4951,2.8672,13.7607,4.2998,21.7876,4.2998s15.2886-1.4326,21.7881-4.2998c6.4951-2.8672,12.0405-6.7373,16.6274-11.6104,4.5869-4.874,8.0718-10.6074,10.4639-17.2012,2.3877-6.5938,3.5835-13.6172,3.5835-21.0713s-1.1958-14.4775-3.5835-21.0703c-2.3921-6.5938-5.877-12.3281-10.4639-17.2012-4.5869-4.874-10.1323-8.7441-16.6274-11.6104-6.4995-2.8672-13.7607-4.3008-21.7881-4.3008s-15.2925,1.4336-21.7876,4.3008c-6.4995,2.8662-12.0405,6.7363-16.6274,11.6104-4.5869,4.873-8.0762,10.6074-10.4639,17.2012-2.3921,6.5928-3.5835,13.6172-3.5835,21.0703Z"/>
    <path class="st1" d="M713.3412,753.2002c0-2.4824-.0986-5.4922-.2866-9.0312-.1929-3.5342-.3359-7.1172-.4302-10.75-.0986-3.6289-.2417-7.0234-.4302-10.1777-.1924-3.1533-.2866-5.5898-.2866-7.3096h17.2012c.188,4.9717.3311,9.7471.4297,14.334.0942,4.5869.3315,7.5518.7168,8.8867h.8599c3.4404-7.2607,9.1738-13.5186,17.2012-18.7773,8.0269-5.2549,17.3887-7.8838,28.0947-7.8838,10.3203,0,18.728,1.626,25.228,4.873,6.4951,3.2529,11.6104,7.5029,15.3374,12.7578,3.7266,5.2588,6.3066,11.3242,7.7402,18.2041,1.4336,6.8809,2.1499,13.9531,2.1499,21.2148v78.8369h-17.2007v-77.9775c0-5.3477-.479-10.5576-1.4331-15.624-.959-5.0615-2.6299-9.6035-5.0171-13.6172-2.3921-4.0137-5.7339-7.2119-10.0337-9.6035-4.3003-2.3877-9.8906-3.584-16.771-3.584-6.3071,0-12.2827,1.1025-17.9175,3.2969-5.6396,2.1992-10.5132,5.5459-14.6211,10.0342-4.1118,4.4922-7.3594,10.1318-9.7471,16.9141-2.3921,6.7861-3.5835,14.7637-3.5835,23.9375v66.2236h-17.2007v-95.1777Z"/>
    <path class="st0" d="M888.5038,633.3672v286.6807h-13.7607v-286.6807h13.7607Z"/>
    <path class="st1" d="M1052.1947,825.1572h-.5742c-2.6777,4.5869-6.0195,8.5547-10.0332,11.8965-4.0137,3.3467-8.3633,6.1191-13.0449,8.3145-4.6855,2.1992-9.6035,3.8203-14.7637,4.873-5.1602,1.0479-10.2266,1.5771-15.1934,1.5771-10.1328,0-19.4941-1.7207-28.0957-5.1602-8.6001-3.4404-15.96-8.2646-22.0742-14.4775-6.1187-6.209-10.894-13.5684-14.334-22.0742-3.4404-8.502-5.1602-17.8193-5.1602-27.9521s1.7197-19.4443,5.1602-27.9512c3.4399-8.502,8.2153-15.8613,14.334-22.0742,6.1143-6.209,13.4741-11.0371,22.0742-14.4775,8.6016-3.4404,17.9629-5.1602,28.0957-5.1602,4.9668,0,10.0332.5283,15.1934,1.5762,5.1602,1.0527,10.0781,2.6787,14.7637,4.874,4.6816,2.1992,9.0312,4.9717,13.0449,8.3135,4.0137,3.3467,7.3555,7.3105,10.0332,11.8975h.5742v-107.5049h17.1992v216.7305h-17.1992v-23.2207ZM1053.9135,782.1543c0-7.4531-1.4336-14.4775-4.2988-21.0703-2.8672-6.5938-6.7871-12.3281-11.7539-17.2012-4.9727-4.874-10.8008-8.7441-17.4883-11.6104-6.6914-2.8672-13.9531-4.3008-21.7871-4.3008-8.0273,0-15.293,1.4336-21.7891,4.3008-6.499,2.8662-12.04,6.7363-16.627,11.6104-4.5869,4.873-8.0762,10.6074-10.4639,17.2012-2.3921,6.5928-3.5835,13.6172-3.5835,21.0703s1.1914,14.4775,3.5835,21.0713c2.3877,6.5938,5.877,12.3271,10.4639,17.2012,4.5869,4.873,10.1279,8.7432,16.627,11.6104,6.4961,2.8672,13.7617,4.2998,21.7891,4.2998,7.834,0,15.0957-1.4326,21.7871-4.2998,6.6875-2.8672,12.5156-6.7373,17.4883-11.6104,4.9668-4.874,8.8867-10.6074,11.7539-17.2012,2.8652-6.5938,4.2988-13.6172,4.2988-21.0713Z"/>
    <path class="st1" d="M1228.5004,823.4365c-6.6924,10.1328-14.957,17.3936-24.7979,21.7881-9.8457,4.3945-20.6904,6.5938-32.5381,6.5938-10.1328,0-19.3066-1.7207-27.5215-5.1602-8.2197-3.4404-15.293-8.2646-21.2148-14.4775-5.9258-6.209-10.4639-13.5684-13.6172-22.0742-3.1533-8.502-4.7305-17.918-4.7305-28.2383,0-9.9355,1.6221-19.1094,4.874-27.5215,3.2471-8.4082,7.834-15.7188,13.7607-21.9316,5.9219-6.208,12.9004-11.082,20.9277-14.6201,8.0273-3.5342,16.9141-5.3037,26.6611-5.3037,10.1279,0,19.0645,1.7695,26.8047,5.3037,7.7402,3.5381,14.2354,8.2197,19.4941,14.0469,5.2549,5.832,9.2188,12.4707,11.8975,19.9248,2.6738,7.4531,4.0137,15.0059,4.0137,22.6475v12.041h-111.2324c0,3.6328.7168,8.2686,2.1504,13.9033,1.4336,5.6396,4.0576,11.1357,7.8838,16.4844,3.8203,5.3535,8.9316,9.9404,15.3369,13.7607,6.4014,3.8252,14.666,5.7334,24.7979,5.7334,8.7891,0,17.2949-2.1006,25.5146-6.3066,8.2158-4.2012,14.5225-9.9355,18.9209-17.2012l12.6143,10.6074ZM1215.3129,770.9736c0-5.9209-1.1963-11.4668-3.583-16.627-2.3926-5.1602-5.6396-9.6982-9.7471-13.6172-4.1123-3.915-8.9863-7.0244-14.6211-9.3174-5.6396-2.2939-11.6104-3.4404-17.918-3.4404-9.3662,0-17.1553,1.9131-23.3643,5.7334-6.2129,3.8262-11.1357,8.2197-14.7637,13.1875-3.6328,4.9727-6.2129,9.7969-7.7412,14.4775-1.5312,4.6855-2.293,7.8838-2.293,9.6035h94.0312Z"/>
    <path class="st1" d="M1270.9291,753.2002c0-2.4824-.0986-5.4922-.2871-9.0312-.1924-3.5342-.3359-7.1172-.4297-10.75-.0986-3.6289-.2422-7.0234-.4297-10.1777-.1934-3.1533-.2871-5.5898-.2871-7.3096h17.2012c.1875,4.9717.3311,9.7471.4297,14.334.0938,4.5869.332,7.5518.7168,8.8867h.8604c3.4395-7.2607,9.1738-13.5186,17.2002-18.7773,8.0273-5.2549,17.3896-7.8838,28.0947-7.8838,8.7891,0,16.8164,2.248,24.082,6.7373,7.2607,4.4922,12.5146,11.8027,15.7666,21.9307,4.2021-9.9355,10.4639-17.2012,18.7783-21.7881,8.3135-4.5869,17.0576-6.8799,26.2314-6.8799,10.3203,0,18.7275,1.626,25.2275,4.873,6.4951,3.2529,11.6104,7.5029,15.3379,12.7578,3.7266,5.2588,6.3066,11.3242,7.7402,18.2041,1.4336,6.8809,2.1494,13.9531,2.1494,21.2148v78.8369h-17.2002v-77.9775c0-5.3477-.4795-10.5576-1.4336-15.624-.959-5.0615-2.6299-9.6035-5.0166-13.6172-2.3926-4.0137-5.7344-7.2119-10.0342-9.6035-4.2998-2.3877-9.8906-3.584-16.7705-3.584-8.0273,0-14.6211,1.4824-19.7812,4.4434-5.1602,2.9658-9.2236,6.7373-12.1836,11.3242-2.9658,4.5869-5.0664,9.5596-6.3076,14.9072-1.2451,5.3535-1.8633,10.4189-1.8633,15.1943v74.5371h-17.2012v-79.6973c0-12.2285-2.248-22.0742-6.7363-29.5283-4.4932-7.4541-11.4229-11.1807-20.7852-11.1807-6.3066,0-12.2822,1.1025-17.917,3.2969-5.6396,2.1992-10.5137,5.5459-14.6211,10.0342-4.1123,4.4922-7.3594,10.1318-9.7471,16.9141-2.3916,6.7861-3.583,14.7637-3.583,23.9375v66.2236h-17.2012v-95.1777Z"/>
    <path class="st1" d="M1618.0971,792.7617c0,6.5.0449,12.3271.1436,17.4873.0947,5.1602.2373,9.9404.4307,14.334.1875,4.3994.4297,8.5068.7158,12.3281.2871,3.8252.7168,7.6455,1.291,11.4668h-16.0547c-1.1465-6.4951-1.7197-13.6621-1.7197-21.501h-.5732c-4.9727,8.6006-11.1357,14.9072-18.4912,18.9209-7.3594,4.0137-16.6768,6.0205-27.9512,6.0205-5.7344,0-11.373-.7168-16.9141-2.1504-5.5459-1.4336-10.5137-3.7266-14.9082-6.8799-4.3984-3.1543-7.9824-7.2119-10.75-12.1846-2.7734-4.9678-4.1572-10.9873-4.1572-18.0605,0-10.1279,2.5801-18.1553,7.7402-24.0811,5.1602-5.9219,11.5127-10.3652,19.0645-13.3311,7.5479-2.9609,15.5752-4.873,24.0811-5.7334,8.502-.8604,16.0049-1.29,22.5049-1.29h20.0674v-8.0273c0-11.4668-3.5381-19.6826-10.6074-24.6543-7.0723-4.9678-15.96-7.4541-26.6611-7.4541-15.293,0-28.7666,4.9727-40.4219,14.9072l-10.0342-11.7539c6.3076-6.1143,14.1416-10.75,23.5078-13.9033,9.3623-3.1543,18.3477-4.7305,26.9482-4.7305,16.0547,0,28.8564,3.7764,38.415,11.3242,9.5547,7.5518,14.334,19.7354,14.334,36.5518v32.3945ZM1583.6957,781.8681c-7.2656,0-14.2891.4795-21.0713,1.4336-6.7861.958-12.9004,2.5801-18.3477,4.873-5.4463,2.2939-9.7959,5.3525-13.0439,9.1738-3.252,3.8252-4.873,8.6006-4.873,14.334,0,4.0137.9043,7.5977,2.7236,10.751,1.8135,3.1533,4.1562,5.7334,7.0234,7.7402s6.0654,3.5381,9.6035,4.5869c3.5342,1.0527,7.1182,1.5762,10.751,1.5762,9.1738,0,16.7217-1.334,22.6475-4.0127,5.9219-2.6748,10.6523-6.1641,14.1904-10.4639,3.5342-4.3008,5.9717-9.1738,7.3105-14.6211,1.335-5.4473,2.0068-10.9385,2.0068-16.4844v-8.8867h-18.9209Z"/>
    <path class="st1" d="M1663.9652,753.2002c0-2.4824-.0986-5.4922-.2871-9.0312-.1924-3.5342-.3359-7.1172-.4297-10.75-.0986-3.6289-.2422-7.0234-.4297-10.1777-.1934-3.1533-.2871-5.5898-.2871-7.3096h17.2012c.1875,4.9717.3311,9.7471.4297,14.334.0938,4.5869.332,7.5518.7168,8.8867h.8604c3.4395-7.2607,9.1738-13.5186,17.2002-18.7773,8.0273-5.2549,17.3896-7.8838,28.0947-7.8838,10.3213,0,18.7285,1.626,25.2285,4.873,6.4951,3.2529,11.6104,7.5029,15.3369,12.7578,3.7275,5.2588,6.3076,11.3242,7.7412,18.2041,1.4326,6.8809,2.1494,13.9531,2.1494,21.2148v78.8369h-17.2002v-77.9775c0-5.3477-.4795-10.5576-1.4336-15.624-.959-5.0615-2.6299-9.6035-5.0176-13.6172-2.3916-4.0137-5.7334-7.2119-10.0332-9.6035-4.3008-2.3877-9.8906-3.584-16.7715-3.584-6.3066,0-12.2822,1.1025-17.917,3.2969-5.6396,2.1992-10.5137,5.5459-14.6211,10.0342-4.1123,4.4922-7.3594,10.1318-9.7471,16.9141-2.3916,6.7861-3.583,14.7637-3.583,23.9375v66.2236h-17.2012v-95.1777Z"/>
    <path class="st1" d="M1939.1791,825.1572h-.5732c-2.6787,4.5869-6.0205,8.5547-10.0342,11.8965-4.0137,3.3467-8.3633,6.1191-13.0439,8.3145-4.6855,2.1992-9.6035,3.8203-14.7646,4.873-5.1602,1.0479-10.2256,1.5771-15.1934,1.5771-10.1328,0-19.4941-1.7207-28.0947-5.1602-8.6006-3.4404-15.96-8.2646-22.0752-14.4775-6.1182-6.209-10.8936-13.5684-14.334-22.0742-3.4395-8.502-5.1602-17.8193-5.1602-27.9521s1.7207-19.4443,5.1602-27.9512c3.4404-8.502,8.2158-15.8613,14.334-22.0742,6.1152-6.209,13.4746-11.0371,22.0752-14.4775s17.9619-5.1602,28.0947-5.1602c4.9678,0,10.0332.5283,15.1934,1.5762,5.1611,1.0527,10.0791,2.6787,14.7646,4.874,4.6807,2.1992,9.0303,4.9717,13.0439,8.3135,4.0137,3.3467,7.3555,7.3105,10.0342,11.8975h.5732v-107.5049h17.2002v216.7305h-17.2002v-23.2207ZM1940.8988,782.1543c0-7.4531-1.4336-14.4775-4.2998-21.0703-2.8672-6.5938-6.7861-12.3281-11.7539-17.2012-4.9727-4.874-10.7998-8.7441-17.4883-11.6104-6.6914-2.8672-13.9531-4.3008-21.7871-4.3008-8.0273,0-15.293,1.4336-21.7881,4.3008-6.5,2.8662-12.041,6.7363-16.627,11.6104-4.5869,4.873-8.0771,10.6074-10.4639,17.2012-2.3926,6.5928-3.584,13.6172-3.584,21.0703s1.1914,14.4775,3.584,21.0713c2.3867,6.5938,5.877,12.3271,10.4639,17.2012,4.5859,4.873,10.127,8.7432,16.627,11.6104,6.4951,2.8672,13.7607,4.2998,21.7881,4.2998,7.834,0,15.0957-1.4326,21.7871-4.2998,6.6885-2.8672,12.5156-6.7373,17.4883-11.6104,4.9678-4.874,8.8867-10.6074,11.7539-17.2012,2.8662-6.5938,4.2998-13.6172,4.2998-21.0713Z"/>
  </g>
  <path class="st0" d="M742.9315,0v494.5697h494.5697V0h-494.5697ZM1197.565,321.3852c0,73.1545-59.5152,132.6699-132.6698,132.6699-64.3591,0-118.1531-46.0674-130.1603-106.9576,81.3519-9.0039,145.6501-74.5381,152.7451-156.4509,62.4335,10.7529,110.085,65.2819,110.085,130.7386ZM932.9987,307.0794c6.5375-60.6947,54.1712-109.2553,114.4354-117.2138-6.5376,60.6947-54.1712,109.2554-114.4354,117.2138ZM892.9528,306.2983c-62.4336-10.7529-110.0851-65.2818-110.0851-130.7385,0-73.1546,59.5154-132.6699,132.6699-132.6699,64.3591,0,118.1531,46.0673,130.1603,106.9574-81.3529,9.0039-145.6503,74.5376-152.745,156.451ZM782.8677,285.9699c27.3645,32.8456,66.6921,55.3694,111.2951,60.8788,6.392,43.2252,28.8006,81.232,61.0097,107.7849h-172.3048v-168.6636ZM1086.2699,150.0962c-6.5852-44.5321-30.172-83.5236-63.9592-110.1601h175.2543v171.0392c-27.3647-32.8457-66.6923-55.3698-111.2951-60.8791Z"/>
</svg>