<?xml version="1.0" encoding="UTF-8"?>
<svg id="Layer_1" xmlns="http://www.w3.org/2000/svg" version="1.1" viewBox="0 0 1960.9823 333.2927">
  <!-- Generator: Adobe Illustrator 29.3.1, SVG Export Plug-In . SVG Version: 2.1.0 Build 151)  -->
  <defs>
    <style>
      .st0 {
        fill: #1e87d6;
      }

      .st1 {
        fill: #5fe496;
      }
    </style>
  </defs>
  <g>
    <path class="st0" d="M406.7587,112.8751h13.6313v18.4023h.4546c2.1191-3.6348,4.771-6.7764,7.9517-9.4282,3.1812-2.6484,6.6245-4.8457,10.3374-6.5889,3.71-1.7393,7.6113-3.0278,11.7007-3.8623,4.0894-.8306,8.1011-1.2495,12.0415-1.2495,8.0264,0,15.4102,1.3633,22.1514,4.0894,6.7378,2.7266,12.5703,6.5532,17.4941,11.4736,4.9199,4.9238,8.7471,10.7563,11.4731,17.4941,2.7266,6.7412,4.0894,14.125,4.0894,22.1514s-1.3628,15.4136-4.0894,22.1519c-2.7261,6.7412-6.5532,12.5732-11.4731,17.4932-4.9238,4.9238-10.7563,8.7471-17.4941,11.4736-6.7412,2.7266-14.125,4.0898-22.1514,4.0898-3.9404,0-7.9521-.4189-12.0415-1.25-4.0894-.834-7.9907-2.1191-11.7007-3.8623-3.7129-1.7393-7.1562-3.9365-10.3374-6.5889-3.1807-2.6475-5.8325-5.793-7.9517-9.4277h-.4546v70.2031h-13.6313V112.8751ZM419.0273,165.3571c0,5.9067,1.1357,11.4731,3.4077,16.6987s5.3745,9.7695,9.3149,13.6318c3.937,3.8623,8.5557,6.9297,13.8589,9.2012,5.3003,2.2725,11.0547,3.4082,17.2671,3.4082,6.3613,0,12.1157-1.1357,17.2666-3.4082,5.1475-2.2715,9.5425-5.3389,13.1772-9.2012,3.6353-3.8623,6.397-8.4062,8.293-13.6318,1.8921-5.2256,2.8398-10.792,2.8398-16.6987s-.9478-11.4736-2.8398-16.6987c-1.896-5.2256-4.6577-9.7695-8.293-13.6318-3.6348-3.8623-8.0298-6.9297-13.1772-9.2017-5.1509-2.272-10.9053-3.4077-17.2666-3.4077-6.2124,0-11.9668,1.1357-17.2671,3.4077-5.3032,2.272-9.9219,5.3394-13.8589,9.2017-3.9404,3.8623-7.043,8.4062-9.3149,13.6318-2.272,5.2251-3.4077,10.7915-3.4077,16.6987Z"/>
    <path class="st0" d="M548.5268,142.4103c0-1.9668-.0781-4.3521-.2275-7.1567-.1523-2.8008-.2661-5.6406-.3408-8.5195-.0781-2.8755-.1914-5.5664-.3408-8.0654-.1523-2.4995-.2271-4.4307-.2271-5.7935h13.6318c.1489,3.9404.2627,7.7246.3408,11.3594.0742,3.6353.2627,5.9854.5679,7.043,3.4824-6.2085,7.9517-11.2812,13.4043-15.2217,5.4531-3.937,12.1162-5.9072,19.9932-5.9072,1.3633,0,2.6875.1138,3.9761.3408,1.2852.2271,2.6128.4937,3.9761.7954l-1.5903,13.4043c-1.8179-.6035-3.5605-.9087-5.2256-.9087-5.9072,0-11.019.9478-15.3359,2.8398-4.3164,1.8955-7.877,4.5083-10.6777,7.8384-2.8047,3.333-4.8848,7.2344-6.248,11.7002-1.3633,4.4697-2.0449,9.2798-2.0449,14.4272v57.2529h-13.6313v-75.4287Z"/>
    <path class="st0" d="M614.1864,165.3571c0-8.0264,1.3633-15.4102,4.0894-22.1514,2.7266-6.7378,6.5107-12.5703,11.3599-17.4941,4.8457-4.9204,10.6782-8.7471,17.4941-11.4736,6.8159-2.7261,14.2349-4.0894,22.2651-4.0894s15.4102,1.3633,22.1514,4.0894c6.7378,2.7266,12.5703,6.5532,17.4941,11.4736,4.9199,4.9238,8.7471,10.7563,11.4731,17.4941,2.7266,6.7412,4.0894,14.125,4.0894,22.1514s-1.3628,15.4136-4.0894,22.1519c-2.7261,6.7412-6.5532,12.5732-11.4731,17.4932-4.9238,4.9238-10.7563,8.7471-17.4941,11.4736-6.7412,2.7266-14.125,4.0898-22.1514,4.0898s-15.4492-1.3633-22.2651-4.0898-12.6484-6.5498-17.4941-11.4736c-4.8491-4.9199-8.6333-10.752-11.3599-17.4932-2.7261-6.7383-4.0894-14.1221-4.0894-22.1519ZM627.8183,165.3571c0,5.9067.9443,11.4731,2.8398,16.6987,1.8921,5.2256,4.6572,9.7695,8.2925,13.6318s8.0264,6.9297,13.1772,9.2012c5.1475,2.2725,10.9053,3.4082,17.2671,3.4082s12.1157-1.1357,17.2666-3.4082c5.1475-2.2715,9.5425-5.3389,13.1772-9.2012,3.6353-3.8623,6.397-8.4062,8.293-13.6318,1.8921-5.2256,2.8398-10.792,2.8398-16.6987s-.9478-11.4736-2.8398-16.6987c-1.896-5.2256-4.6577-9.7695-8.293-13.6318-3.6348-3.8623-8.0298-6.9297-13.1772-9.2017-5.1509-2.272-10.9053-3.4077-17.2666-3.4077s-12.1196,1.1357-17.2671,3.4077c-5.1509,2.272-9.542,5.3394-13.1772,9.2017s-6.4004,8.4062-8.2925,13.6318c-1.8955,5.2251-2.8398,10.7915-2.8398,16.6987Z"/>
    <path class="st0" d="M806.392,125.1437h-29.9897v68.3857c0,4.6963,1.2852,8.3311,3.8623,10.9053,2.5737,2.5771,6.1343,3.8623,10.6782,3.8623,2.5737,0,5.1865-.3408,7.8384-1.0225,2.6484-.6816,5.1865-1.5518,7.6108-2.6133l1.1362,12.2686c-2.5771.9092-5.5308,1.7402-8.8608,2.5-3.333.7559-6.2866,1.1357-8.8604,1.1357-4.8491,0-9.0132-.7207-12.4956-2.1582-3.4863-1.4385-6.2871-3.3691-8.4062-5.7939-2.123-2.4209-3.6743-5.2607-4.6577-8.5195-.9868-3.2559-1.4766-6.7773-1.4766-10.5645v-68.3857h-22.7197v-12.2686h22.7197v-30.2173h13.6313v30.2173h29.9897v12.2686Z"/>
    <path class="st1" d="M824.7934,165.3571c0-8.0264,1.3633-15.4102,4.0894-22.1514,2.7266-6.7378,6.5107-12.5703,11.3599-17.4941,4.8457-4.9204,10.6782-8.7471,17.4941-11.4736,6.8159-2.7261,14.2349-4.0894,22.2651-4.0894s15.4102,1.3633,22.1514,4.0894c6.7378,2.7266,12.5703,6.5532,17.4941,11.4736,4.9199,4.9238,8.7471,10.7563,11.4731,17.4941,2.7266,6.7412,4.0894,14.125,4.0894,22.1514s-1.3628,15.4136-4.0894,22.1519c-2.7261,6.7412-6.5532,12.5732-11.4731,17.4932-4.9238,4.9238-10.7563,8.7471-17.4941,11.4736-6.7412,2.7266-14.125,4.0898-22.1514,4.0898s-15.4492-1.3633-22.2651-4.0898-12.6484-6.5498-17.4941-11.4736c-4.8491-4.9199-8.6333-10.752-11.3599-17.4932-2.7261-6.7383-4.0894-14.1221-4.0894-22.1519ZM838.4252,165.3571c0,5.9067.9443,11.4731,2.8398,16.6987,1.8921,5.2256,4.6572,9.7695,8.2925,13.6318s8.0264,6.9297,13.1772,9.2012c5.1475,2.2725,10.9053,3.4082,17.2671,3.4082s12.1157-1.1357,17.2666-3.4082c5.1475-2.2715,9.5425-5.3389,13.1772-9.2012,3.6353-3.8623,6.397-8.4062,8.293-13.6318,1.8921-5.2256,2.8398-10.792,2.8398-16.6987s-.9478-11.4736-2.8398-16.6987c-1.896-5.2256-4.6577-9.7695-8.293-13.6318-3.6348-3.8623-8.0298-6.9297-13.1772-9.2017-5.1509-2.272-10.9053-3.4077-17.2666-3.4077s-12.1196,1.1357-17.2671,3.4077c-5.1509,2.272-9.542,5.3394-13.1772,9.2017s-6.4004,8.4062-8.2925,13.6318c-1.8955,5.2251-2.8398,10.7915-2.8398,16.6987Z"/>
    <path class="st1" d="M965.6527,142.4103c0-1.9668-.0781-4.3521-.2275-7.1567-.1523-2.8008-.2661-5.6406-.3408-8.5195-.0781-2.8755-.1914-5.5664-.3408-8.0654-.1523-2.4995-.2271-4.4307-.2271-5.7935h13.6313c.1494,3.9404.2627,7.7246.3408,11.3594.0752,3.6353.2627,5.9854.5684,7.043h.6816c2.7266-5.7544,7.2705-10.7134,13.6318-14.8809,6.3613-4.1641,13.7803-6.248,22.2646-6.248,8.1797,0,14.8428,1.2886,19.9932,3.8623,5.1475,2.5771,9.2021,5.9463,12.1553,10.1104,2.9531,4.1675,4.998,8.9741,6.1338,14.4268,1.1367,5.4526,1.7041,11.0581,1.7041,16.8125v62.4785h-13.6318v-61.7969c0-4.2388-.3799-8.3672-1.1357-12.3823-.7598-4.0112-2.084-7.6108-3.9756-10.7915-1.8955-3.1812-4.5439-5.7158-7.9521-7.6113-3.4082-1.8921-7.8379-2.8398-13.291-2.8398-4.998,0-9.7334.873-14.1992,2.6128-4.4697,1.7432-8.332,4.3945-11.5869,7.9517-3.2588,3.5605-5.833,8.0303-7.7246,13.4048-1.8955,5.3779-2.8398,11.7002-2.8398,18.9707v52.4819h-13.6318v-75.4287Z"/>
    <path class="st0" d="M1104.4682,47.443v227.1948h-10.9053V47.443h10.9053Z"/>
    <path class="st1" d="M1234.1928,199.4366h-.4541c-2.123,3.6348-4.7705,6.7803-7.9521,9.4277-3.1807,2.6523-6.627,4.8496-10.3369,6.5889-3.7129,1.7432-7.6113,3.0283-11.7002,3.8623-4.0898.8311-8.1045,1.25-12.042,1.25-8.0293,0-15.4492-1.3633-22.2646-4.0898-6.8164-2.7266-12.6484-6.5498-17.4941-11.4736-4.8496-4.9199-8.6338-10.752-11.3594-17.4932-2.7266-6.7383-4.0898-14.1221-4.0898-22.1519s1.3633-15.4102,4.0898-22.1514c2.7256-6.7378,6.5098-12.5703,11.3594-17.4941,4.8457-4.9204,10.6777-8.7471,17.4941-11.4736,6.8154-2.7261,14.2354-4.0894,22.2646-4.0894,3.9375,0,7.9521.4189,12.042,1.2495,4.0889.8345,7.9873,2.123,11.7002,3.8623,3.71,1.7432,7.1562,3.9404,10.3369,6.5889,3.1816,2.6519,5.8291,5.7935,7.9521,9.4282h.4541V46.0797h13.6318v171.7593h-13.6318v-18.4023ZM1235.5561,165.3571c0-5.9072-1.1357-11.4736-3.4072-16.6987-2.2725-5.2256-5.3789-9.7695-9.3154-13.6318-3.9404-3.8623-8.5586-6.9297-13.8584-9.2017-5.3037-2.272-11.0586-3.4077-17.2676-3.4077-6.3613,0-12.1191,1.1357-17.2666,3.4077-5.1504,2.272-9.542,5.3394-13.1768,9.2017-3.6357,3.8623-6.4014,8.4062-8.293,13.6318-1.8955,5.2251-2.8398,10.7915-2.8398,16.6987s.9443,11.4731,2.8398,16.6987c1.8916,5.2256,4.6572,9.7695,8.293,13.6318,3.6348,3.8623,8.0264,6.9297,13.1768,9.2012,5.1475,2.2725,10.9053,3.4082,17.2666,3.4082,6.209,0,11.9639-1.1357,17.2676-3.4082,5.2998-2.2715,9.918-5.3389,13.8584-9.2012,3.9365-3.8623,7.043-8.4062,9.3154-13.6318,2.2715-5.2256,3.4072-10.792,3.4072-16.6987Z"/>
    <path class="st1" d="M1373.9164,198.0734c-5.3037,8.0293-11.8535,13.7842-19.6523,17.2666-7.8027,3.4824-16.3975,5.2256-25.7861,5.2256-8.0303,0-15.3008-1.3633-21.8115-4.0898-6.5137-2.7266-12.1191-6.5498-16.8125-11.4736-4.6963-4.9199-8.292-10.752-10.791-17.4932-2.499-6.7383-3.749-14.2002-3.749-22.3789,0-7.874,1.2852-15.144,3.8623-21.811,2.5732-6.6631,6.209-12.4565,10.9053-17.3804,4.6934-4.9199,10.2236-8.7822,16.585-11.5869,6.3613-2.8008,13.4053-4.2031,21.1299-4.2031,8.0264,0,15.1084,1.4023,21.2422,4.2031,6.1348,2.8047,11.2822,6.5142,15.4492,11.1323,4.1641,4.6221,7.3057,9.8833,9.4287,15.7905,2.1191,5.9067,3.1807,11.8921,3.1807,17.9482v9.542h-88.1514c0,2.8789.5674,6.5537,1.7041,11.0195,1.1357,4.4688,3.2158,8.8242,6.2471,13.0635,3.0283,4.2422,7.0791,7.877,12.1553,10.9053,5.0732,3.0312,11.623,4.5439,19.6523,4.5439,6.9648,0,13.7061-1.665,20.2207-4.998,6.5107-3.3301,11.5088-7.874,14.9951-13.6318l9.9961,8.4062ZM1363.4652,156.4962c0-4.6929-.9473-9.0879-2.8398-13.1772-1.8955-4.0894-4.4688-7.6855-7.7246-10.7915-3.2588-3.103-7.1211-5.5664-11.5869-7.3838-4.4697-1.8179-9.2012-2.7266-14.1992-2.7266-7.4229,0-13.5967,1.5156-18.5166,4.5439-4.9238,3.0317-8.8252,6.5142-11.7012,10.4507-2.8789,3.9404-4.9229,7.7637-6.1338,11.4736-1.2139,3.7134-1.8174,6.248-1.8174,7.6108h74.5195Z"/>
    <path class="st1" d="M1407.5414,142.4103c0-1.9668-.0781-4.3521-.2275-7.1567-.1523-2.8008-.2656-5.6406-.3408-8.5195-.0781-2.8755-.1914-5.5664-.3408-8.0654-.1523-2.4995-.2266-4.4307-.2266-5.7935h13.6309c.1494,3.9404.2627,7.7246.3408,11.3594.0752,3.6353.2627,5.9854.5684,7.043h.6816c2.7266-5.7544,7.2705-10.7134,13.6318-14.8809,6.3613-4.1641,13.7803-6.248,22.2646-6.248,6.9648,0,13.3271,1.7822,19.085,5.3389,5.7539,3.561,9.918,9.3545,12.4951,17.3809,3.3301-7.874,8.293-13.6318,14.8818-17.2671s13.5176-5.4526,20.7881-5.4526c8.1787,0,14.8418,1.2886,19.9932,3.8623,5.1475,2.5771,9.2012,5.9463,12.1553,10.1104,2.9531,4.1675,4.998,8.9741,6.1338,14.4268s1.7041,11.0581,1.7041,16.8125v62.4785h-13.6318v-61.7969c0-4.2388-.3799-8.3672-1.1357-12.3823-.7598-4.0112-2.084-7.6108-3.9756-10.7915-1.8965-3.1812-4.5439-5.7158-7.9521-7.6113-3.4082-1.8921-7.8379-2.8398-13.291-2.8398-6.3613,0-11.5869,1.1748-15.6768,3.5215-4.0889,2.3501-7.3086,5.3389-9.6553,8.9741-2.3506,3.6353-4.0156,7.5757-4.998,11.8145-.9873,4.2422-1.4775,8.2568-1.4775,12.041v59.0708h-13.6318v-63.1602c0-9.6914-1.7812-17.4941-5.3389-23.4014-3.5605-5.9067-9.0518-8.8604-16.4717-8.8604-4.998,0-9.7334.873-14.1992,2.6128-4.4697,1.7432-8.332,4.3945-11.5869,7.9517-3.2588,3.5605-5.833,8.0303-7.7246,13.4048-1.8955,5.3779-2.8398,11.7002-2.8398,18.9707v52.4819h-13.6318v-75.4287Z"/>
    <path class="st1" d="M1682.6723,173.7628c0,5.1514.0361,9.7695.1143,13.8594.0742,4.0898.1875,7.877.3408,11.3594.1484,3.4863.3408,6.7412.5674,9.7695.2275,3.0312.5684,6.0596,1.0225,9.0879h-12.7227c-.9092-5.1475-1.3633-10.8271-1.3633-17.04h-.4541c-3.9404,6.8164-8.8252,11.8145-14.6543,14.9951-5.833,3.1807-13.2168,4.7715-22.1514,4.7715-4.5439,0-9.0137-.5684-13.4043-1.7041-4.3955-1.1357-8.332-2.9541-11.8145-5.4531-3.4863-2.499-6.3262-5.7148-8.5195-9.6553-2.1982-3.9375-3.2949-8.708-3.2949-14.3135,0-8.0264,2.0449-14.3877,6.1348-19.084,4.0889-4.6934,9.123-8.2148,15.1084-10.5649,5.9814-2.3467,12.3428-3.8623,19.084-4.5439,6.7383-.6816,12.6836-1.0225,17.835-1.0225h15.9033v-6.3613c0-9.0879-2.8037-15.5981-8.4062-19.5386-5.6045-3.937-12.6484-5.9072-21.1289-5.9072-12.1191,0-22.7979,3.9404-32.0342,11.814l-7.9521-9.3149c4.998-4.8457,11.207-8.5195,18.6299-11.019,7.4199-2.499,14.541-3.7485,21.3564-3.7485,12.7227,0,22.8691,2.9927,30.4443,8.9741,7.5723,5.9854,11.3594,15.6411,11.3594,28.9673v25.6729ZM1655.4096,165.13c-5.7588,0-11.3242.3794-16.6992,1.1357-5.3779.7598-10.2236,2.0449-14.54,3.8623-4.3174,1.8174-7.7637,4.2422-10.3379,7.2705-2.5771,3.0312-3.8623,6.8154-3.8623,11.3594,0,3.1807.7168,6.0205,2.1582,8.5195,1.4375,2.5,3.2949,4.5439,5.5664,6.1348,2.2725,1.5898,4.8066,2.8047,7.6113,3.6348,2.8008.834,5.6406,1.25,8.5195,1.25,7.2705,0,13.252-1.0576,17.9482-3.1807,4.6934-2.1191,8.4424-4.8848,11.2461-8.293,2.8008-3.4082,4.7324-7.2705,5.7939-11.5869,1.0576-4.3164,1.5898-8.6689,1.5898-13.0635v-7.043h-14.9941Z"/>
    <path class="st1" d="M1719.0229,142.4103c0-1.9668-.0781-4.3521-.2275-7.1567-.1523-2.8008-.2656-5.6406-.3408-8.5195-.0781-2.8755-.1914-5.5664-.3408-8.0654-.1523-2.4995-.2266-4.4307-.2266-5.7935h13.6309c.1494,3.9404.2627,7.7246.3408,11.3594.0752,3.6353.2627,5.9854.5684,7.043h.6816c2.7266-5.7544,7.2705-10.7134,13.6318-14.8809,6.3613-4.1641,13.7803-6.248,22.2646-6.248,8.1797,0,14.8428,1.2886,19.9932,3.8623,5.1475,2.5771,9.2021,5.9463,12.1553,10.1104,2.9531,4.1675,4.998,8.9741,6.1338,14.4268,1.1367,5.4526,1.7041,11.0581,1.7041,16.8125v62.4785h-13.6318v-61.7969c0-4.2388-.3799-8.3672-1.1357-12.3823-.7598-4.0112-2.084-7.6108-3.9756-10.7915-1.8955-3.1812-4.5439-5.7158-7.9521-7.6113-3.4082-1.8921-7.8379-2.8398-13.291-2.8398-4.998,0-9.7334.873-14.1992,2.6128-4.4697,1.7432-8.332,4.3945-11.5869,7.9517-3.2588,3.5605-5.833,8.0303-7.7246,13.4048-1.8955,5.3779-2.8398,11.7002-2.8398,18.9707v52.4819h-13.6318v-75.4287Z"/>
    <path class="st1" d="M1937.1293,199.4366h-.4541c-2.123,3.6348-4.7705,6.7803-7.9521,9.4277-3.1807,2.6523-6.627,4.8496-10.3369,6.5889-3.7129,1.7432-7.6113,3.0283-11.7002,3.8623-4.0898.8311-8.1045,1.25-12.042,1.25-8.0293,0-15.4492-1.3633-22.2646-4.0898-6.8164-2.7266-12.6484-6.5498-17.4941-11.4736-4.8496-4.9199-8.6338-10.752-11.3594-17.4932-2.7266-6.7383-4.0898-14.1221-4.0898-22.1519s1.3633-15.4102,4.0898-22.1514c2.7256-6.7378,6.5098-12.5703,11.3594-17.4941,4.8457-4.9204,10.6777-8.7471,17.4941-11.4736,6.8154-2.7261,14.2354-4.0894,22.2646-4.0894,3.9375,0,7.9521.4189,12.042,1.2495,4.0889.8345,7.9873,2.123,11.7002,3.8623,3.71,1.7432,7.1562,3.9404,10.3369,6.5889,3.1816,2.6519,5.8291,5.7935,7.9521,9.4282h.4541V46.0797h13.6318v171.7593h-13.6318v-18.4023ZM1938.4926,165.3571c0-5.9072-1.1357-11.4736-3.4072-16.6987-2.2725-5.2256-5.3789-9.7695-9.3154-13.6318-3.9404-3.8623-8.5586-6.9297-13.8584-9.2017-5.3037-2.272-11.0586-3.4077-17.2676-3.4077-6.3613,0-12.1191,1.1357-17.2666,3.4077-5.1504,2.272-9.542,5.3394-13.1768,9.2017-3.6357,3.8623-6.4014,8.4062-8.293,13.6318-1.8955,5.2251-2.8398,10.7915-2.8398,16.6987s.9443,11.4731,2.8398,16.6987c1.8916,5.2256,4.6572,9.7695,8.293,13.6318,3.6348,3.8623,8.0264,6.9297,13.1768,9.2012,5.1475,2.2725,10.9053,3.4082,17.2666,3.4082,6.209,0,11.9639-1.1357,17.2676-3.4082,5.2998-2.2715,9.918-5.3389,13.8584-9.2012,3.9365-3.8623,7.043-8.4062,9.3154-13.6318,2.2715-5.2256,3.4072-10.792,3.4072-16.6987Z"/>
  </g>
  <path class="st0" d="M0,0v333.2927h333.2927V0H0ZM306.3795,216.5829c0,49.2991-40.1075,89.4068-89.4067,89.4068-43.3719,0-79.6239-31.045-87.7156-72.0792,54.8234-6.0678,98.1543-50.2315,102.9356-105.4329,42.0742,7.2464,74.1867,43.9938,74.1867,88.1053ZM128.0871,206.9421c4.4057-40.9024,36.5062-73.6276,77.1185-78.9909-4.4057,40.9024-36.5062,73.6277-77.1185,78.9909ZM101.1,206.4158c-42.0743-7.2464-74.1868-43.9937-74.1868-88.1052,0-49.2992,40.1077-89.4068,89.4068-89.4068,43.3719,0,79.6239,31.0449,87.7156,72.0791-54.8241,6.0677-98.1544,50.2312-102.9355,105.433ZM26.9132,192.7164c18.4411,22.1348,44.9441,37.3137,75.0023,41.0265,4.3076,29.1297,19.4089,54.7426,41.1147,72.6367H26.9132v-113.6632ZM231.3772,101.1505c-4.4378-30.0104-20.3331-56.2869-43.1024-74.2373h118.1046v115.264c-18.4412-22.1349-44.9443-37.3139-75.0023-41.0267Z"/>
</svg>